HIERARCHY
ROOT RootJoint
{
    OFFSET   0.000000   0.000000   0.000000
    CHANNELS 6 Xposition Yposition Zposition Xrotation Yrotation Zrotation
    JOINT pelvis_lowerback
    {
        OFFSET   0.000000   0.093605   0.000000
        CHANNELS 3 Xrotation Yrotation Zrotation
        JOINT lowerback_torso
        {
            OFFSET   0.000000   0.100000   0.000000
            CHANNELS 3 Xrotation Yrotation Zrotation
            JOINT torso_head
            {
                OFFSET   0.000000   0.282350   0.000000
                CHANNELS 3 Xrotation Yrotation Zrotation
                End Site
                {
                    OFFSET   0.000000   0.192650   0.000000
                }
            }
            JOINT rTorso_Clavicle
            {
                OFFSET  -0.001000   0.157500   0.000000
                CHANNELS 3 Xrotation Yrotation Zrotation
                JOINT rShoulder
                {
                    OFFSET  -0.117647   0.000000   0.000000
                    CHANNELS 3 Xrotation Yrotation Zrotation
                    JOINT rElbow
                    {
                        OFFSET  -0.245000   0.000000   0.000000
                        CHANNELS 3 Xrotation Yrotation Zrotation
                        JOINT rWrist
                        {
                            OFFSET  -0.240000   0.000000   0.000000
                            CHANNELS 3 Xrotation Yrotation Zrotation
                            End Site
                            {
                                OFFSET  -0.116353  -0.002500   0.000000
                            }
                        }
                    }
                }
            }
            JOINT lTorso_Clavicle
            {
                OFFSET   0.001000   0.157500   0.000000
                CHANNELS 3 Xrotation Yrotation Zrotation
                JOINT lShoulder
                {
                    OFFSET   0.117647   0.000000   0.000000
                    CHANNELS 3 Xrotation Yrotation Zrotation
                    JOINT lElbow
                    {
                        OFFSET   0.245000   0.000000   0.000000
                        CHANNELS 3 Xrotation Yrotation Zrotation
                        JOINT lWrist
                        {
                            OFFSET   0.240000   0.000000   0.000000
                            CHANNELS 3 Xrotation Yrotation Zrotation
                            End Site
                            {
                                OFFSET   0.116353  -0.002500   0.000000
                            }
                        }
                    }
                }
            }
        }
    }
    JOINT rHip
    {
        OFFSET  -0.100000  -0.051395   0.000000
        CHANNELS 3 Xrotation Yrotation Zrotation
        JOINT rKnee
        {
            OFFSET   0.000000  -0.410000   0.000000
            CHANNELS 3 Xrotation Yrotation Zrotation
            JOINT rAnkle
            {
                OFFSET   0.000000  -0.390000   0.000000
                CHANNELS 3 Xrotation Yrotation Zrotation
                JOINT rToeJoint
                {
                    OFFSET   0.000000  -0.050000   0.130000
                    CHANNELS 3 Xrotation Yrotation Zrotation
                    End Site
                    {
                        OFFSET  -0.010000   0.002000   0.060000
                    }
                }
            }
        }
    }
    JOINT lHip
    {
        OFFSET   0.100000  -0.051395   0.000000
        CHANNELS 3 Xrotation Yrotation Zrotation
        JOINT lKnee
        {
            OFFSET   0.000000  -0.410000   0.000000
            CHANNELS 3 Xrotation Yrotation Zrotation
            JOINT lAnkle
            {
                OFFSET   0.000000  -0.390000   0.000000
                CHANNELS 3 Xrotation Yrotation Zrotation
                JOINT lToeJoint
                {
                    OFFSET   0.000000  -0.050000   0.130000
                    CHANNELS 3 Xrotation Yrotation Zrotation
                    End Site
                    {
                        OFFSET   0.010000   0.002000   0.060000
                    }
                }
            }
        }
    }
}
MOTION
Frames: 15
Frame Time:   0.008333
 -2.335699   0.938178   4.035015   1.980838   1.551964  -2.388596   9.485855  -0.644098   2.016566   1.045519  -2.888106  -1.161574  -8.803993  -2.181468  -0.966880  -0.161619  -0.767301  -4.570781   8.878205   3.442741  61.685184  -0.010660  15.722168   0.006402   2.408023   0.741561   2.901579   6.038326  -0.591496   5.663789  10.713370 -15.572608 -57.591584  -0.010129 -18.628002  -0.015192   2.004146  -5.471825  -6.640522 -19.669620  -3.187806  -6.549294  48.440512   0.004817  -0.010947  -2.440779  -7.763181   6.722316  -1.624803  -0.015254   0.002428 -26.159074   0.625747   5.795036  49.711288  -0.007504  -0.035727  24.283466   5.410572  -0.560741 -45.595117   0.001819   0.006491
 -2.336823   0.952644   4.040417   1.897354   1.696552  -4.356797   7.923832  -0.532500   4.266255   1.204438  -3.067121  -0.963616  -8.117200  -2.309242  -1.635049   0.900435  -0.504311  -6.391751   8.469592   3.810069  62.159200  -0.014581  16.520918   0.006213   2.358658   0.402334   3.300527   6.459687   0.013087   6.493830  10.629860 -15.543914 -58.523039  -0.020032 -19.956107  -0.026392   1.835922  -5.564795  -6.882524 -18.622518  -4.078391  -4.242663  48.094138   0.004878  -0.009636  -1.008839  -7.929442   7.127770  -0.968487  -0.014819   0.001353 -24.573046   0.265992   7.929212  46.570265  -0.005064  -0.045411  27.558819   5.137359  -1.131362 -45.476119   0.001764   0.005925
 -2.337799   0.967161   4.046172   1.807944   1.806582  -6.396793   6.314238  -0.458788   6.602216   1.308222  -3.193090  -0.606087  -7.461069  -2.437369  -2.239885   1.914679  -0.299973  -8.245501   8.102059   4.138061  62.494294  -0.017500  17.270495   0.006277   2.327459   0.107787   3.609276   6.877033   0.656127   7.306379  10.590299 -15.496809 -59.410078  -0.030433 -21.213635  -0.037205   1.636587  -5.886657  -7.189139 -17.545401  -4.961719  -1.815868  48.065181   0.004016  -0.007765   0.327146  -8.071449   7.512161  -0.444080  -0.013968   0.000371 -22.877907  -0.043638  10.134136  43.226384  -0.000843  -0.051527  31.016427   4.904019  -1.653205 -45.380916   0.001594   0.005255
 -2.338535   0.981450   4.052116   1.756290   1.868900  -8.379378   4.669485  -0.435411   8.904282   1.326897  -3.275036  -0.175836  -6.858566  -2.563471  -2.781126   2.870510  -0.149535 -10.060405   7.766377   4.432548  62.750788  -0.019286  17.968647   0.006532   2.301122  -0.174691   3.810688   7.280166   1.306645   8.123262  10.592156 -15.428898 -60.208589  -0.040397 -22.379138  -0.046651   1.440478  -6.207927  -7.478415 -16.469567  -5.776504   0.560209  48.151250   0.002913  -0.006070   1.578733  -8.194022   7.874462   0.032190  -0.013038  -0.000594 -21.123531  -0.273782  12.270612  39.670420   0.005003  -0.052883  34.661675   4.687603  -2.129956 -45.163924   0.001603   0.005098
 -2.339030   0.995420   4.058056   1.745588   1.902811 -10.255582   3.032690  -0.471030  11.122631   1.268152  -3.328345   0.291485  -6.311083  -2.685940  -3.272543   3.761262  -0.036563 -11.796084   7.449383   4.703915  62.961333  -0.020021  18.621972   0.006749   2.276736  -0.437762   3.938108   7.655068   1.943188   8.942137  10.618401 -15.347137 -60.911734  -0.049188 -23.458868  -0.054311   1.255316  -6.485048  -7.698881 -15.407896  -6.508268   2.822612  48.280249   0.001876  -0.004709   2.749666  -8.300728   8.214833   0.468521  -0.012056  -0.001440 -19.393732  -0.424028  14.290036  36.018674   0.011295  -0.050141  38.348437   4.460512  -2.583405 -43.887054   0.003158   0.007931
 -2.339296   1.008952   4.063871   1.765184   1.915556 -12.020081   1.435716  -0.561340  13.248165   1.153395  -3.360463   0.780731  -5.812089  -2.803908  -3.722674   4.585809   0.051240 -13.439572   7.143597   4.958649  63.143028  -0.019907  19.236054   0.006818   2.252578  -0.669254   4.022944   7.995796   2.554885   9.756012  10.656260 -15.258306 -61.529319  -0.056403 -24.462009  -0.060083   1.080758  -6.726842  -7.842172 -14.365466  -7.157132   4.961359  48.429582   0.000985  -0.003659   3.844254  -8.393857   8.534091   0.867438  -0.011058  -0.002129 -17.730685  -0.502433  16.188957  32.334752   0.017105  -0.044461  42.074149   4.217316  -3.012902 -41.406951   0.006152   0.011416
 -2.339345   1.021870   4.069467   1.790694   1.914649 -13.681125  -0.087200  -0.697259  15.283430   1.007777  -3.376965   1.285617  -5.354675  -2.917126  -4.136150   5.345853   0.123125 -14.991060   6.844817   5.200488  63.303893  -0.019176  19.815167   0.006685   2.227490  -0.861483   4.084453   8.300384   3.135132  10.560428  10.696978 -15.167383 -62.072732  -0.061922 -25.397025  -0.064024   0.914477  -6.950284  -7.916793 -13.336310  -7.728116   6.981372  48.596588   0.000229  -0.002862   4.867160  -8.475161   8.833321   1.231241  -0.010069  -0.002658 -16.191936  -0.530589  17.977622  28.739291   0.021614  -0.037107  45.820328   3.962128  -3.417857 -37.594013   0.010413   0.013945
 -2.338238   1.034454   4.073348   2.084454   1.980057 -13.160562  -1.545624  -0.518437  14.549616   0.830157  -3.572430   1.812184  -5.172581  -2.700381  -4.359763   5.803926   0.137223 -15.213305   6.747065   5.491858  63.196107  -0.015934  20.628779   0.004905   2.290016  -1.111753   3.555060   8.571475   3.103330  10.727511  10.877631 -14.939573 -61.936980  -0.064171 -26.688267  -0.065685   0.761121  -6.566155  -7.187155 -12.714739  -8.186951   6.275301  47.202393   0.002934   0.004867   7.234473  -8.577860   9.592808   2.096484  -0.014081  -0.009064 -15.504386  -0.273116  17.169116  26.710383   0.014830  -0.025759  43.426709   3.927055  -3.848203 -32.451995   0.047847   0.008377
 -2.337103   1.046534   4.076158   2.394483   2.017558 -12.290880  -2.766916  -0.233276  13.514934   0.694928  -3.762952   2.052960  -5.005241  -2.476921  -4.623019   6.189932   0.226664 -15.160766   6.579611   5.824009  63.290751  -0.011274  21.422491   0.002130   2.336915  -1.163780   3.241675   8.743138   2.939330  10.728685  10.917093 -14.799634 -61.896411  -0.059147 -27.937023  -0.062797   0.598428  -6.327513  -6.448806 -12.266147  -8.524460   5.134258  45.307103   0.003980   0.014300   9.446777  -8.657576  10.301410   3.020972  -0.017677  -0.013792 -15.069848   0.001673  16.064215  25.038992   0.010010  -0.017797  41.147793   3.898869  -4.256593 -27.643981   0.072385  -0.001664
 -2.336179   1.057994   4.078256   2.681748   2.032249 -11.372870  -3.785891   0.093824  12.443014   0.630326  -3.941213   2.157832  -4.832170  -2.267909  -4.896736   6.525121   0.365910 -14.999428   6.374208   6.171981  63.480896  -0.006767  22.185553  -0.000792   2.372006  -1.081502   3.147700   8.861910   2.716116  10.602953  10.873358 -14.724537 -61.963166  -0.050034 -29.136204  -0.057097   0.418456  -6.266698  -5.874020 -11.961775  -8.818234   3.925662  43.336332   0.003670   0.021986  11.503864  -8.709848  10.964264   3.857492  -0.019867  -0.016119 -14.737251   0.239111  15.030572  23.514444   0.007563  -0.012180  39.022780   3.886021  -4.641646 -22.860917   0.085436  -0.012217
 -2.335492   1.068773   4.079878   2.939622   2.045201 -10.470532  -4.642271   0.432995  11.380311   0.627307  -4.114078   2.182752  -4.654811  -2.074983  -5.163996   6.826104   0.524634 -14.790136   6.157352   6.516108  63.712638  -0.003030  22.909140  -0.003388   2.400647  -0.928872   3.182916   8.952015   2.465334  10.387009  10.784394 -14.692591 -62.106449  -0.039140 -30.276267  -0.049998   0.231284  -6.325841  -5.465539 -11.767139  -9.090640   2.729764  41.421494   0.002539   0.027218  13.419940  -8.737343  11.584913   4.611959  -0.020861  -0.016812 -14.460192   0.435797  14.129172  22.089573   0.006834  -0.008349  37.039627   3.887868  -5.002680 -18.086764   0.089541  -0.021259
 -2.335023   1.078839   4.081182   3.168914   2.070773  -9.599478  -5.368542   0.768679  10.339048   0.671624  -4.285879   2.149444  -4.477066  -1.897163  -5.419831   7.104488   0.683401 -14.564196   5.945848   6.845079  63.958941  -0.000233  23.588692  -0.005462   2.425743  -0.751501   3.288022   9.025627   2.204887  10.112305  10.672321 -14.688522 -62.299542  -0.028014 -31.352728  -0.042518   0.043880  -6.453973  -5.191635 -11.652722  -9.344536   1.568384  39.600018   0.000959   0.030141  15.206018  -8.743762  12.165712   5.294772  -0.020910  -0.016444 -14.220495   0.598473  13.359581  20.752560   0.007188  -0.005881  35.188502   3.901956  -5.340233 -13.319040   0.087408  -0.027783
 -2.334740   1.088178   4.082272   3.372115   2.115606  -8.763989  -5.989659   1.092750   9.324149   0.750767  -4.458172   2.070005  -4.302124  -1.733112  -5.663164   7.367285   0.831633 -14.339350   5.748861   7.153201  64.204608   0.001668  24.222899  -0.006973   2.448964  -0.577140   3.428506   9.089272   1.945360   9.802254  10.550203 -14.702055 -62.523029  -0.017595 -32.364717  -0.035295  -0.140181  -6.618041  -5.020127 -11.596919  -9.579292   0.448709  37.881017  -0.000783   0.031171  16.871370  -8.732720  12.708684   5.914310  -0.020261  -0.015426 -14.008661   0.734159  12.708767  19.498815   0.008140  -0.004401  33.461067   3.925811  -5.655236  -8.877397   0.080527  -0.030890
 -2.334513   1.096718   4.082768   3.336188   2.175606  -7.692915  -6.069631   1.466557   8.081877   0.709392  -4.431996   1.815433  -3.991343  -1.603458  -5.530800   7.364861   0.887963 -13.535547   5.912610   7.396433  63.839474   0.003399  25.614065  -0.012270   2.424848  -0.782859   3.573317   9.113961   1.683004   9.273668  10.349412 -14.563970 -61.994162  -0.012146 -34.093432  -0.033271  -0.265310  -6.298335  -5.224576 -11.500901  -9.413464  -0.807623  36.429272  -0.003618   0.026542  17.877627  -8.279332  12.708345   5.967177  -0.016164  -0.012176 -13.680946   0.994644  11.771524  18.551681   0.007508  -0.003708  32.383420   3.892929  -5.719654  -7.521056   0.065150  -0.027830
 -2.334349   1.104500   4.083021   3.282962   2.286480  -6.647786  -6.079920   1.804815   6.875160   0.694220  -4.419908   1.537076  -3.664687  -1.479191  -5.403794   7.323011   0.968298 -12.789719   6.027190   7.635083  63.466764   0.003994  26.942244  -0.016306   2.393236  -0.783273   3.612366   9.048557   1.378305   8.826344  10.083816 -14.452887 -61.426391  -0.009894 -35.747153  -0.031417  -0.401727  -6.222888  -5.271006 -11.433353  -9.225636  -1.984457  35.058425  -0.005509   0.021349  18.809607  -7.853081  12.699228   5.978452  -0.012921  -0.009693 -13.385389   1.243721  10.826433  17.719026   0.006587  -0.003518  31.383718   3.861280  -5.781311  -6.289290   0.053265  -0.024349
